<?xml version="1.0" standalone="no"?>
<!DOCTYPE svg PUBLIC "-//W3C//DTD SVG 20010904//EN"
 "http://www.w3.org/TR/2001/REC-SVG-20010904/DTD/svg10.dtd">
<svg version="1.0" xmlns="http://www.w3.org/2000/svg"
 width="136" height="32" viewBox="0 0 567.000000 133.000000"
 preserveAspectRatio="xMidYMid meet">

<g transform="translate(0.000000,133.000000) scale(0.100000,-0.100000)"
fill="#000000" stroke="none">
<path d="M3495 1247 c-29 -29 -35 -42 -35 -77 0 -35 6 -48 35 -77 33 -33 38
-35 87 -31 67 7 108 48 108 108 0 60 -41 101 -108 108 -49 4 -54 2 -87 -31z"/>
<path d="M2840 1213 c-19 -2 -50 -6 -67 -9 l-33 -5 0 -459 0 -460 84 0 84 0 7
31 7 31 26 -26 c88 -84 252 -69 327 30 53 70 68 120 73 246 6 152 -17 238 -81
301 -85 86 -226 87 -314 5 l-23 -21 0 171 0 172 -27 -2 c-16 0 -44 -3 -63 -5z
m267 -425 c28 -26 43 -90 43 -180 -1 -148 -54 -222 -142 -197 -68 18 -78 43
-78 192 0 124 1 132 25 163 42 54 106 64 152 22z"/>
<path d="M3915 1213 c-22 -2 -50 -6 -62 -8 l-23 -5 0 -460 0 -460 95 0 95 0 0
470 0 470 -32 -2 c-18 -1 -51 -3 -73 -5z"/>
<path d="M326 1149 c-60 -14 -153 -68 -192 -112 -70 -77 -114 -204 -114 -326
0 -208 75 -355 211 -416 116 -52 299 -43 433 20 l56 26 0 215 0 214 -161 0
-162 0 7 -52 c3 -29 6 -61 6 -70 0 -15 10 -18 60 -18 l60 0 0 -99 0 -99 -36
-12 c-116 -39 -209 4 -241 110 -25 80 -24 267 1 339 48 140 194 187 320 105
l38 -26 55 54 54 53 -23 19 c-88 71 -249 104 -372 75z"/>
<path d="M2350 1093 c-82 -8 -80 -6 -80 -83 l0 -70 -45 0 -45 0 0 -70 0 -70
45 0 45 0 0 -137 c1 -257 24 -338 107 -379 56 -28 181 -26 246 4 l49 22 -34
60 c-23 43 -37 59 -48 54 -37 -14 -76 -15 -95 -1 -18 14 -20 29 -23 196 l-3
181 65 0 c72 0 70 -3 81 88 l7 52 -76 0 -76 0 0 80 0 80 -42 -2 c-24 0 -59 -3
-78 -5z"/>
<path d="M1045 951 c-104 -27 -184 -105 -216 -213 -32 -105 -24 -226 22 -316
59 -116 161 -169 306 -160 137 9 238 87 278 215 25 78 17 239 -14 309 -46 105
-142 165 -271 170 -41 2 -88 0 -105 -5z m147 -153 c39 -19 53 -68 53 -183 0
-158 -28 -208 -117 -208 -46 0 -82 29 -100 82 -16 46 -16 196 0 242 27 77 93
104 164 67z"/>
<path d="M1695 946 c-65 -15 -115 -33 -115 -40 0 -5 41 -119 44 -123 1 -1 24
5 51 13 28 8 81 16 118 16 81 1 105 -16 114 -79 l5 -40 -99 -5 c-116 -7 -187
-32 -233 -84 -96 -110 -44 -295 93 -334 86 -24 201 3 251 59 l19 21 33 -34
c30 -31 104 -60 125 -50 3 2 14 30 23 62 18 59 18 60 -3 81 -20 20 -21 31 -21
194 0 94 -5 189 -11 210 -14 51 -60 101 -112 122 -56 23 -204 29 -282 11z
m215 -424 c0 -48 -4 -62 -22 -80 -73 -67 -158 -41 -158 49 0 57 46 87 133 88
l47 1 0 -58z"/>
<path d="M4662 945 c-141 -44 -221 -185 -209 -372 8 -136 72 -240 175 -285 65
-29 183 -35 257 -13 66 19 145 61 145 77 0 6 -16 32 -36 59 l-35 49 -51 -26
c-67 -34 -156 -37 -196 -7 -29 21 -46 50 -57 96 l-7 27 207 0 208 0 -5 95 c-9
164 -75 262 -201 300 -62 18 -137 18 -195 0z m142 -125 c30 -11 53 -52 62
-109 l7 -41 -112 0 c-71 0 -111 4 -111 11 0 5 5 30 11 55 19 75 78 109 143 84z"/>
<path d="M5276 940 c-118 -47 -168 -159 -116 -261 28 -54 88 -94 184 -125 104
-32 126 -47 126 -83 0 -45 -31 -64 -100 -64 -46 1 -71 8 -114 31 l-55 30 -47
-55 -47 -55 24 -19 c133 -103 375 -103 482 -1 44 41 57 75 57 144 0 107 -45
154 -195 203 -114 38 -135 51 -135 80 0 58 94 71 195 26 l46 -20 35 56 c41 63
43 58 -46 101 -75 36 -219 42 -294 12z"/>
<path d="M3480 610 l0 -330 95 0 95 0 0 330 0 330 -95 0 -95 0 0 -330z"/>
<path d="M4130 789 l-101 -150 98 -180 97 -179 108 0 c59 0 108 2 108 5 0 3
-47 86 -105 186 l-105 180 67 97 c36 53 82 118 101 145 l34 47 -101 0 -101 0
-100 -151z"/>
</g>
</svg>
